<svg width="80" height="30" viewBox="0 0 80 30" fill="none" xmlns="http://www.w3.org/2000/svg">
<path d="M42.4858 2.40031C42.3739 2.83955 42.2619 3.27878 42.1585 3.72663C41.9173 4.79457 40.229 4.34673 40.5046 3.27879C40.608 2.83094 40.72 2.39171 40.832 1.95247L40.8321 1.95207C40.944 1.51298 41.056 1.07388 41.1593 0.626174C41.4349 -0.476212 43.0888 0.00608244 42.8132 1.07402C42.7098 1.52186 42.5978 1.96108 42.4858 2.40031Z" fill="#F2C94C"/>
<path fill-rule="evenodd" clip-rule="evenodd" d="M34.337 16.1629C33.3378 14.8883 32.9588 13.0969 33.1655 11.4778C33.8202 6.5515 39.8155 4.27783 43.9847 5.96586C46.9479 7.17159 49.3942 10.8577 48.4295 14.096C48.0125 15.5167 46.9931 16.522 45.989 17.5123C44.7531 18.7313 43.5403 19.9274 43.5023 21.8471C44.2603 21.916 44.7082 23.0184 43.8813 23.4318C41.8391 24.5013 39.5223 23.9243 37.3902 23.3932C37.2561 23.3598 37.1227 23.3266 36.9901 23.294C35.9564 23.0528 36.3355 21.5371 37.3002 21.606C37.3002 19.7949 36.0616 18.281 34.9286 16.8964C34.7255 16.6482 34.5256 16.4038 34.337 16.1629ZM43.9847 7.86058C42.8821 7.24049 41.5728 7.03379 40.2979 7.13714C37.6448 7.30939 34.7849 9.51416 34.7849 12.339C34.8013 14.1184 35.8389 15.4801 36.8822 16.8492C38.0407 18.3694 39.2061 19.8987 38.9886 22.0194C39.9189 22.226 40.9181 22.3983 41.8139 22.2949C41.7106 20.9514 42.1585 19.2289 42.9854 18.1266C43.4231 17.5298 43.9987 17.0097 44.5764 16.4875C45.4996 15.6531 46.4286 14.8135 46.8101 13.6481C47.4992 11.5122 45.8453 8.89407 43.9847 7.86058Z" fill="#F2C94C"/>
<path d="M52.2709 14.7332C51.8317 14.6816 51.3925 14.6299 50.9448 14.5782C50.4968 14.5093 50.0834 14.2338 50.0834 13.717C50.0834 13.3036 50.4968 12.8213 50.9448 12.8558C51.3925 12.9074 51.8317 12.9591 52.2709 13.0107L52.2717 13.0108C52.7109 13.0625 53.1501 13.1142 53.5979 13.1658C54.0458 13.2003 54.4593 13.5103 54.4593 14.0271C54.4593 14.4404 54.0458 14.9227 53.5979 14.8883C53.1501 14.8366 52.7109 14.785 52.2717 14.7333L52.2709 14.7332Z" fill="#F2C94C"/>
<path d="M30.9259 12.1323L28.7552 11.9256C28.3072 11.8912 27.8938 12.339 27.8938 12.7869C27.8938 13.3036 28.3072 13.6137 28.7552 13.6481L30.9259 13.8548C31.3738 13.8893 31.7873 13.4414 31.7873 12.9936C31.7873 12.4768 31.3738 12.1668 30.9259 12.1323Z" fill="#F2C94C"/>
<path d="M48.7051 4.45008C48.3261 4.86347 47.9816 5.27687 47.6714 5.72471C47.3958 6.10365 47.6025 6.6893 47.9816 6.89599C48.4295 7.13714 48.8774 6.96489 49.1531 6.58595C49.1875 6.5515 49.2133 6.50844 49.2392 6.46539C49.265 6.42233 49.2909 6.37925 49.3253 6.3448L49.3598 6.31035C49.3702 6.29992 49.3806 6.28634 49.392 6.2715C49.4183 6.23735 49.4496 6.19657 49.4976 6.17255C49.5665 6.08643 49.644 6.00031 49.7216 5.91419C49.7991 5.82807 49.8766 5.74192 49.9455 5.65581C50.2556 5.31131 50.2901 4.76012 49.9455 4.45008C49.5665 4.14003 49.0152 4.10558 48.7051 4.45008Z" fill="#F2C94C"/>
<path d="M31.7528 3.69219C31.994 3.27879 32.5109 3.14099 32.9243 3.38214C33.5101 3.72663 34.0614 4.17448 34.5093 4.69122C34.8194 5.03572 34.8539 5.55246 34.5093 5.89696C34.1992 6.207 33.6134 6.24145 33.3033 5.89696C32.8899 5.44911 32.5798 5.17352 32.0629 4.86347C31.6495 4.62232 31.5116 4.10558 31.7528 3.69219Z" fill="#F2C94C"/>
<path d="M41.2565 27.5468C39.9174 27.6594 38.5796 27.7718 37.3002 27.2557C36.2666 26.8423 35.8186 28.4959 36.8523 28.9093C38.2348 29.4666 39.6461 29.3603 41.0676 29.2532C41.8427 29.1948 42.6208 29.1362 43.3989 29.1849C44.5015 29.2538 44.5015 27.5313 43.3989 27.4624C42.6903 27.4264 41.9732 27.4866 41.2565 27.5468Z" fill="#F2C94C"/>
<path d="M41.4288 24.8253C42.1455 24.7651 42.8625 24.7048 43.5712 24.7409C44.6738 24.7753 44.6738 26.4978 43.5712 26.4633C42.7931 26.4147 42.015 26.4733 41.2399 26.5317C39.8184 26.6388 38.407 26.7451 37.0246 26.1877C35.9909 25.7744 36.4388 24.1208 37.4725 24.5342C38.7518 25.0503 40.0897 24.9379 41.4288 24.8253Z" fill="#F2C94C"/>
<path d="M0 19.9775C0 19.8841 0.0233486 19.7985 0.0700457 19.7207C0.116743 19.6377 0.1816 19.5677 0.264617 19.5106C0.347634 19.4484 0.443623 19.3991 0.552583 19.3628C0.666732 19.3265 0.786069 19.3083 0.910594 19.3083C1.15446 19.3083 1.33346 19.3472 1.44761 19.425C1.56176 19.5029 1.63181 19.6248 1.65775 19.7908C1.74595 20.4807 1.81859 21.1344 1.87567 21.7517C1.93793 22.3638 1.98722 22.95 2.02354 23.5103C2.05986 24.0654 2.08581 24.5997 2.10137 25.1133C2.11694 25.6217 2.12472 26.1145 2.12472 26.5917C2.12472 26.8511 2.03133 27.0457 1.84454 27.1753C1.66294 27.305 1.39573 27.3699 1.0429 27.3699C0.882057 27.3699 0.754937 27.331 0.661543 27.2532C0.573337 27.1805 0.529234 27.0716 0.529234 26.9263C0.529234 26.0341 0.500697 25.1989 0.443623 24.4207C0.391737 23.6374 0.332069 22.9422 0.264617 22.3353C0.197166 21.7283 0.134903 21.2225 0.0778286 20.8179C0.0259429 20.4081 0 20.128 0 19.9775Z" fill="white"/>
<path d="M2.92635 21.3004C2.8589 21.3107 2.80183 21.3185 2.75513 21.3237C2.70843 21.3289 2.66952 21.3315 2.63839 21.3315C2.46198 21.3211 2.33745 21.2718 2.26481 21.1836C2.19217 21.0903 2.15585 20.9372 2.15585 20.7245C2.15585 20.3043 2.35821 20.0398 2.76291 19.9308C3.12093 19.8478 3.50488 19.7882 3.91478 19.7519C4.32468 19.7104 4.78127 19.6896 5.28456 19.6896C5.95907 19.6896 6.6284 19.7545 7.29254 19.8841C7.96186 20.0138 8.59746 20.1928 9.19934 20.4211C9.8064 20.6441 10.3694 20.9113 10.8882 21.2225C11.4071 21.5286 11.8559 21.8632 12.2347 22.2264C12.6186 22.5843 12.917 22.963 13.1297 23.3624C13.3476 23.7567 13.4566 24.1536 13.4566 24.553C13.4566 24.9576 13.3191 25.3441 13.0441 25.7124C12.7743 26.0756 12.4085 26.3972 11.9467 26.6773C11.4849 26.9575 10.9505 27.1805 10.3434 27.3465C9.73636 27.5125 9.10076 27.5955 8.43662 27.5955C7.90738 27.5955 7.3548 27.5463 6.77887 27.4477C6.20294 27.3491 5.56734 27.1909 4.87207 26.973C4.55038 26.8848 4.38953 26.6877 4.38953 26.3816C4.38953 26.3142 4.4051 26.2519 4.43623 26.1949C4.46736 26.1378 4.49849 26.0833 4.52962 26.0315C4.56594 25.9796 4.59967 25.9303 4.6308 25.8836C4.66193 25.8317 4.6775 25.7799 4.6775 25.728C4.6775 25.4323 4.66193 25.1159 4.6308 24.7787C4.60486 24.4415 4.56594 24.1043 4.51406 23.7671C4.46736 23.4299 4.41029 23.1082 4.34283 22.8022C4.28057 22.4909 4.21571 22.216 4.14826 21.9773C4.08081 21.7387 4.01077 21.5494 3.93813 21.4093C3.87067 21.2641 3.80841 21.1914 3.75134 21.1914C3.66313 21.1914 3.55417 21.2018 3.42446 21.2225C3.29993 21.2433 3.1339 21.2692 2.92635 21.3004ZM5.92276 21.1759C5.77229 21.1759 5.69705 21.2277 5.69705 21.3315C5.69705 21.3574 5.70483 21.4015 5.7204 21.4638C5.73597 21.526 5.75932 21.6246 5.79045 21.7595C5.83714 21.9773 5.88125 22.2108 5.92276 22.4598C5.96426 22.7088 6.00577 22.9889 6.04728 23.3002C6.08879 23.6063 6.1277 23.9512 6.16402 24.3351C6.20553 24.7138 6.24704 25.1418 6.28855 25.6191C6.29374 25.6969 6.36378 25.7721 6.49869 25.8447C6.63359 25.9122 6.8126 25.9744 7.0357 26.0315C7.25881 26.0833 7.51305 26.1274 7.79842 26.1638C8.08898 26.1949 8.38733 26.2104 8.69345 26.2104C9.09816 26.2104 9.48471 26.1638 9.8531 26.0704C10.2267 25.9718 10.5536 25.8421 10.8337 25.6813C11.1191 25.5205 11.3448 25.3337 11.5108 25.121C11.6821 24.9084 11.7677 24.6879 11.7677 24.4596C11.7677 24.0809 11.6172 23.7126 11.3163 23.3547C11.0205 22.9967 10.6106 22.6725 10.0866 22.382C9.56254 22.0863 8.9451 21.8347 8.23426 21.6272C7.52343 21.4145 6.75293 21.2641 5.92276 21.1759Z" fill="white"/>
<path d="M14.6785 25.3311C14.6629 25.3311 14.637 25.3337 14.6006 25.3389C14.5695 25.3441 14.5332 25.3493 14.4917 25.3545C14.4554 25.3597 14.419 25.3649 14.3827 25.3701C14.3464 25.3752 14.3179 25.3778 14.2971 25.3778C14.1518 25.3778 14.0247 25.3182 13.9158 25.1989C13.8068 25.0744 13.7523 24.9109 13.7523 24.7086C13.7523 24.5738 13.7964 24.4441 13.8846 24.3196C13.9728 24.1951 14.1103 24.0913 14.2971 24.0083C14.3542 23.9824 14.3983 23.9538 14.4294 23.9227C14.4657 23.8864 14.4839 23.8371 14.4839 23.7749C14.4839 23.6089 14.4787 23.4325 14.4683 23.2457C14.4631 23.0538 14.4528 22.8307 14.4372 22.5765C14.432 22.5246 14.4139 22.4754 14.3827 22.4287C14.3568 22.382 14.3256 22.3301 14.2893 22.273C14.2582 22.2108 14.2297 22.1434 14.2037 22.0707C14.1778 21.9981 14.1648 21.9073 14.1648 21.7984C14.1648 21.6998 14.1778 21.5883 14.2037 21.4638C14.2348 21.3341 14.2945 21.2148 14.3827 21.1058C14.4761 20.9917 14.6032 20.8983 14.7641 20.8257C14.9301 20.7479 15.1454 20.709 15.4101 20.709C15.519 20.709 15.6098 20.7194 15.6825 20.7401C15.7551 20.7609 15.8174 20.7868 15.8692 20.8179C15.9263 20.8439 15.9756 20.8672 16.0171 20.8879C16.0638 20.9087 16.1105 20.9191 16.1572 20.9191C16.2402 20.9191 16.4063 20.9035 16.6553 20.8724C16.9044 20.8413 17.2027 20.7972 17.5503 20.7401C17.9032 20.683 18.2897 20.6182 18.71 20.5456C19.1355 20.4729 19.5661 20.3951 20.0019 20.3121C20.4378 20.2239 20.8632 20.1357 21.2783 20.0476C21.6934 19.9594 22.0696 19.8738 22.4068 19.7908C22.5106 19.7648 22.6014 19.7519 22.6792 19.7519C22.7882 19.7519 22.8738 19.7778 22.9361 19.8297C23.0035 19.8764 23.0528 19.936 23.084 20.0086C23.1151 20.0813 23.1332 20.1643 23.1384 20.2577C23.1488 20.3458 23.154 20.4288 23.154 20.5067C23.154 20.6415 23.1073 20.7686 23.0139 20.8879C22.9257 21.0021 22.7778 21.0929 22.5703 21.1603C22.0566 21.3107 21.5378 21.443 21.0137 21.5572C20.4949 21.6661 19.9708 21.7672 19.4416 21.8606C18.9123 21.9488 18.3805 22.0292 17.8461 22.1019C17.3117 22.1745 16.7798 22.2471 16.2506 22.3197C16.178 22.3301 16.1235 22.3586 16.0872 22.4053C16.0508 22.4468 16.0327 22.5039 16.0327 22.5765V22.8956C16.0327 22.9837 16.0353 23.0745 16.0405 23.1679C16.0457 23.2613 16.056 23.3469 16.0716 23.4247C16.0924 23.5025 16.1183 23.5674 16.1494 23.6192C16.1806 23.6659 16.2221 23.6893 16.274 23.6893C16.3985 23.6893 16.5905 23.6633 16.8499 23.6114C17.1145 23.5596 17.4103 23.4973 17.7371 23.4247C18.0692 23.3469 18.4142 23.2639 18.7723 23.1757C19.1355 23.0823 19.4779 22.9993 19.7996 22.9267C20.1213 22.8489 20.4041 22.784 20.6479 22.7321C20.8918 22.6803 21.063 22.6543 21.1616 22.6543C21.3069 22.6543 21.4158 22.7088 21.4885 22.8177C21.5663 22.9215 21.6182 23.0538 21.6441 23.2146C21.6441 23.2405 21.6467 23.2639 21.6519 23.2846C21.6571 23.3054 21.6597 23.3287 21.6597 23.3547C21.6597 23.5051 21.613 23.6452 21.5196 23.7749C21.4314 23.8994 21.2706 23.9927 21.0371 24.055C20.9748 24.0757 20.8503 24.1095 20.6635 24.1561C20.4767 24.1976 20.2562 24.2495 20.0019 24.3118C19.7477 24.3688 19.4727 24.4311 19.177 24.4985C18.8812 24.566 18.5907 24.6334 18.3053 24.7008C18.0199 24.7631 17.7527 24.8254 17.5036 24.8876C17.2598 24.9447 17.06 24.9914 16.9044 25.0277C16.7643 25.064 16.6787 25.0925 16.6475 25.1133C16.6216 25.134 16.6086 25.16 16.6086 25.1911C16.619 25.3052 16.6761 25.4116 16.7798 25.5101C16.8888 25.6087 17.0237 25.6995 17.1846 25.7825C17.3506 25.8655 17.5348 25.9407 17.7371 26.0081C17.9447 26.0756 18.1574 26.1326 18.3753 26.1793C18.5984 26.2208 18.8164 26.2545 19.0291 26.2805C19.2418 26.3064 19.439 26.3194 19.6206 26.3194C19.6984 26.3194 19.81 26.3194 19.9552 26.3194C20.1005 26.3194 20.2588 26.3168 20.43 26.3116C20.6064 26.3012 20.7854 26.2883 20.967 26.2727C21.1538 26.2571 21.3198 26.2364 21.4651 26.2104C21.6156 26.1793 21.7375 26.143 21.8309 26.1015C21.9295 26.0548 21.9788 26.0003 21.9788 25.9381C21.9788 25.881 21.958 25.8214 21.9165 25.7591C21.8802 25.6969 21.862 25.6294 21.862 25.5568C21.862 25.4531 21.8906 25.3519 21.9477 25.2533C22.0047 25.1496 22.0774 25.0588 22.1656 24.981C22.259 24.898 22.3627 24.8331 22.4769 24.7864C22.5962 24.7346 22.7156 24.7086 22.8349 24.7086C22.9854 24.7086 23.1229 24.7398 23.2474 24.802C23.3719 24.8591 23.4783 24.9369 23.5665 25.0354C23.6599 25.1288 23.7299 25.2378 23.7766 25.3623C23.8285 25.4868 23.8545 25.6139 23.8545 25.7436C23.8545 26.0859 23.7273 26.3816 23.4731 26.6306C23.224 26.8796 22.8972 27.0846 22.4925 27.2454C22.0878 27.4114 21.6312 27.5333 21.1227 27.6111C20.6142 27.6941 20.1031 27.7356 19.5895 27.7356C18.9876 27.7356 18.4376 27.6941 17.9395 27.6111C17.4414 27.5333 16.9952 27.4062 16.6008 27.2298C16.2065 27.0534 15.8667 26.8252 15.5813 26.545C15.2959 26.2597 15.0624 25.9148 14.8808 25.5101C14.8186 25.3908 14.7511 25.3311 14.6785 25.3311Z" fill="white"/>
<path d="M23.8545 25.6969C23.7663 25.6969 23.6988 25.6528 23.6521 25.5646C23.6106 25.4764 23.5898 25.3519 23.5898 25.1911C23.5898 25.1651 23.5898 25.1366 23.5898 25.1055C23.5898 25.0692 23.595 25.0017 23.6054 24.9032C23.621 24.5297 23.8052 24.3118 24.158 24.2495L24.337 24.234C24.4563 24.2184 24.5497 24.1821 24.6172 24.125C24.6846 24.0628 24.7339 23.9772 24.7651 23.8682C24.8533 23.5725 24.9415 23.2743 25.0297 22.9734C25.1179 22.6725 25.2113 22.3742 25.3099 22.0785C25.3617 21.9125 25.4136 21.7361 25.4655 21.5494C25.5226 21.3574 25.5823 21.1681 25.6445 20.9813C25.712 20.7946 25.7872 20.6104 25.8702 20.4288C25.9584 20.2473 26.057 20.0813 26.166 19.9308C26.2127 19.8686 26.2775 19.8037 26.3605 19.7363C26.4436 19.6689 26.537 19.6092 26.6407 19.5573C26.7497 19.5003 26.8638 19.4562 26.9832 19.425C27.1077 19.3887 27.2296 19.3706 27.349 19.3706C27.5046 19.3706 27.6577 19.4199 27.8082 19.5184C28.0105 19.6585 28.2103 19.8271 28.4074 20.0242C28.6046 20.2213 28.8251 20.4729 29.069 20.779C29.3128 21.0851 29.5956 21.456 29.9173 21.8918C30.239 22.3223 30.6255 22.8437 31.077 23.4558C31.1444 23.5336 31.2145 23.5933 31.2871 23.6348C31.3649 23.6711 31.4557 23.6893 31.5595 23.6893H32.0031C32.1847 23.6893 32.3248 23.7334 32.4234 23.8215C32.5272 23.9045 32.579 24.0213 32.579 24.1717C32.579 24.2028 32.5765 24.2391 32.5713 24.2807C32.5713 24.3222 32.5635 24.3637 32.5479 24.4052L32.4 24.8409C32.3897 24.8824 32.3819 24.9187 32.3767 24.9499C32.3715 24.981 32.3689 25.0121 32.3689 25.0432C32.3689 25.1522 32.4052 25.2637 32.4779 25.3778L33.3106 26.5139C33.404 26.654 33.4507 26.7863 33.4507 26.9108C33.4507 27.0975 33.3444 27.2609 33.1316 27.401L32.8359 27.6111C32.7632 27.6578 32.6932 27.6941 32.6257 27.72C32.5635 27.746 32.4986 27.7589 32.4312 27.7589C32.3378 27.7589 32.2496 27.7304 32.1666 27.6734C32.0887 27.6215 32.0135 27.5489 31.9409 27.4555C31.6918 27.1027 31.4402 26.7551 31.1859 26.4128C30.9369 26.0704 30.6826 25.7306 30.4232 25.3934C30.3039 25.2274 30.1456 25.1444 29.9484 25.1444C29.3154 25.1703 28.6876 25.2066 28.065 25.2533C27.4475 25.2948 26.8275 25.3467 26.2049 25.409C25.9818 25.4297 25.8417 25.549 25.7846 25.7669L25.4344 27.0508C25.341 27.3932 25.1334 27.5644 24.8118 27.5644H24.6872L24.446 27.5333C24.2695 27.5177 24.1346 27.4633 24.0413 27.3699C23.953 27.2765 23.9089 27.1546 23.9089 27.0042C23.9089 26.973 23.9115 26.9393 23.9167 26.903C23.9219 26.8667 23.9297 26.8278 23.9401 26.7863C23.966 26.6825 23.992 26.5762 24.0179 26.4672C24.049 26.3583 24.0802 26.2519 24.1113 26.1482C24.1217 26.1067 24.1295 26.0704 24.1346 26.0393C24.1398 26.0029 24.1424 25.9692 24.1424 25.9381C24.1424 25.7773 24.0802 25.6969 23.9556 25.6969H23.8545ZM27.5591 21.5883C27.5072 21.5416 27.4605 21.5027 27.419 21.4716C27.3775 21.4404 27.3334 21.4249 27.2867 21.4249C27.157 21.4249 27.0662 21.5156 27.0143 21.6972C26.9105 22.0033 26.8094 22.3068 26.7108 22.6076C26.6174 22.9033 26.5214 23.2068 26.4228 23.5181C26.4124 23.544 26.4072 23.5674 26.4072 23.5881C26.4072 23.6089 26.4072 23.6322 26.4072 23.6581C26.4072 23.8501 26.5084 23.946 26.7108 23.946H26.7886C27.0999 23.9045 27.4112 23.8734 27.7225 23.8527C28.0339 23.8267 28.3452 23.806 28.6565 23.7904C28.7603 23.78 28.8407 23.7541 28.8978 23.7126C28.96 23.6659 28.9911 23.6063 28.9911 23.5336C28.9911 23.4662 28.96 23.3858 28.8978 23.2924C28.6798 23.0019 28.4593 22.7166 28.2362 22.4365C28.0183 22.1511 27.7926 21.8684 27.5591 21.5883Z" fill="white"/>
<path d="M49.5223 27.9301C49.4393 26.9756 49.3303 26.0315 49.1954 25.0977C49.0657 24.1639 48.9075 23.2224 48.7207 22.273C48.7051 22.2108 48.6844 22.1615 48.6584 22.1252C48.6377 22.0837 48.6065 22.0629 48.565 22.0629C48.5339 22.0629 48.4976 22.0655 48.4561 22.0707C48.4198 22.0759 48.3808 22.0785 48.3393 22.0785C48.1422 22.0785 47.9891 22.0292 47.8801 21.9307C47.7712 21.8321 47.7167 21.7076 47.7167 21.5572C47.7167 21.386 47.7868 21.22 47.9268 21.0591C48.0721 20.8983 48.2615 20.7479 48.495 20.6078C48.7285 20.4626 48.9957 20.3303 49.2966 20.211C49.5976 20.0916 49.9063 19.9905 50.2228 19.9075C50.5445 19.8193 50.861 19.7519 51.1723 19.7052C51.4836 19.6533 51.7664 19.6274 52.0206 19.6274C52.4824 19.6274 52.8793 19.6844 53.2114 19.7985C53.5487 19.9127 53.8237 20.0631 54.0364 20.2499C54.2543 20.4366 54.4126 20.6519 54.5111 20.8957C54.6149 21.1395 54.6668 21.3911 54.6668 21.6505C54.6668 21.9099 54.6097 22.1952 54.4956 22.5065C54.3866 22.8126 54.1998 23.1057 53.9352 23.3858C53.9041 23.4221 53.8833 23.4532 53.8729 23.4792C53.8626 23.4999 53.8574 23.5233 53.8574 23.5492C53.8574 23.5959 53.9093 23.627 54.013 23.6426C54.314 23.6685 54.6045 23.7411 54.8847 23.8605C55.1701 23.9798 55.4191 24.1354 55.6319 24.3273C55.8446 24.5141 56.0158 24.7346 56.1455 24.9888C56.2753 25.243 56.3401 25.5127 56.3401 25.798C56.3401 26.1975 56.2623 26.5476 56.1066 26.8485C55.9562 27.1442 55.746 27.3906 55.4762 27.5878C55.2064 27.7849 54.8847 27.9301 54.5111 28.0235C54.1427 28.1221 53.7432 28.1714 53.3126 28.1714C52.9753 28.1714 52.6355 28.1402 52.293 28.078C51.9558 28.0209 51.6263 27.9457 51.3046 27.8523C51.2838 27.842 51.2527 27.8368 51.2112 27.8368C51.123 27.8368 51.053 27.8886 51.0011 27.9924C50.9129 28.1688 50.7857 28.3062 50.6197 28.4048C50.4589 28.5034 50.2954 28.5527 50.1294 28.5527C49.9789 28.5527 49.8466 28.5034 49.7325 28.4048C49.6183 28.3114 49.5483 28.1532 49.5223 27.9301ZM51.0322 24.9654C50.9181 25.0069 50.861 25.0873 50.861 25.2066C50.861 25.2222 50.8662 25.2793 50.8765 25.3778C50.8921 25.4764 50.9103 25.5827 50.931 25.6969C50.9518 25.8317 50.9751 25.977 51.0011 26.1326C51.0166 26.2675 51.0867 26.3505 51.2112 26.3816C51.3721 26.4283 51.5485 26.4776 51.7404 26.5295C51.9324 26.5762 52.1322 26.6203 52.3397 26.6618C52.5473 26.7033 52.7574 26.737 52.9701 26.7629C53.1829 26.7889 53.3878 26.8018 53.585 26.8018C53.7354 26.8018 53.8807 26.7863 54.0208 26.7551C54.1609 26.7188 54.2854 26.6644 54.3944 26.5917C54.5034 26.5191 54.589 26.4283 54.6512 26.3194C54.7187 26.2053 54.7524 26.0678 54.7524 25.907C54.7524 25.6735 54.6875 25.4764 54.5578 25.3156C54.4281 25.1548 54.2647 25.0251 54.0675 24.9265C53.8703 24.8279 53.655 24.7579 53.4215 24.7164C53.1881 24.6697 52.9675 24.6464 52.76 24.6464C52.4798 24.6464 52.1944 24.6775 51.9039 24.7398C51.6185 24.802 51.3279 24.8772 51.0322 24.9654ZM50.4329 21.2537C50.3758 21.2692 50.3317 21.2874 50.3006 21.3081C50.2695 21.3289 50.2539 21.3678 50.2539 21.4249C50.2539 21.4819 50.2643 21.5857 50.285 21.7361C50.311 21.8814 50.3395 22.0474 50.3707 22.2341C50.407 22.4209 50.4433 22.6154 50.4796 22.8177C50.5211 23.0149 50.5574 23.1938 50.5886 23.3547C50.599 23.4532 50.6197 23.5207 50.6508 23.557C50.6872 23.5933 50.7313 23.6114 50.7831 23.6114C50.8143 23.6114 50.8532 23.6063 50.8999 23.5959C50.9518 23.5803 51.0192 23.5596 51.1022 23.5336C51.315 23.4662 51.5381 23.391 51.7716 23.308C52.0102 23.2198 52.2256 23.116 52.4175 22.9967C52.6147 22.8774 52.7756 22.7373 52.9001 22.5765C53.0298 22.4105 53.0947 22.2186 53.0947 22.0007C53.0947 21.8295 53.0583 21.6868 52.9857 21.5727C52.9131 21.4534 52.8119 21.3574 52.6822 21.2848C52.5525 21.207 52.402 21.1525 52.2308 21.1214C52.0595 21.0903 51.8727 21.0747 51.6704 21.0747C51.4629 21.0747 51.2527 21.0903 51.04 21.1214C50.8324 21.1525 50.6301 21.1966 50.4329 21.2537Z" fill="white"/>
<path d="M55.0949 20.5845C54.9133 20.4496 54.8225 20.2888 54.8225 20.102C54.8225 20.0294 54.8354 19.9594 54.8614 19.8919C54.8873 19.8193 54.934 19.7467 55.0015 19.674L55.2272 19.4173C55.3621 19.2513 55.5203 19.1683 55.7019 19.1683C55.7642 19.1683 55.8316 19.1812 55.9043 19.2072C55.9717 19.2279 56.0418 19.2668 56.1144 19.3239C56.8408 19.8686 57.5387 20.434 58.208 21.0202C58.8825 21.6012 59.5337 22.2367 60.1615 22.9267C60.2601 23.0201 60.3457 23.0667 60.4183 23.0667C60.5584 23.0667 60.644 22.9734 60.6752 22.7866L61.3601 20.0553C61.4379 19.7493 61.5961 19.5962 61.8348 19.5962C61.8867 19.5962 61.9412 19.604 61.9982 19.6196C62.0605 19.6351 62.1228 19.6637 62.185 19.7052L62.4574 19.853C62.7117 19.9931 62.8388 20.1824 62.8388 20.4211C62.8388 20.4989 62.8232 20.5845 62.7921 20.6778C62.6157 21.3263 62.4367 22.0111 62.2551 22.7321C62.0787 23.448 61.8971 24.1847 61.7103 24.9421C61.5235 25.6943 61.3315 26.4569 61.1344 27.2298C60.9372 28.0028 60.7348 28.7679 60.5273 29.5253C60.4443 29.8418 60.2653 30 59.9903 30C59.9124 30 59.8268 29.9844 59.7334 29.9533L59.4766 29.8755C59.3158 29.834 59.199 29.7666 59.1264 29.6732C59.0537 29.5798 59.0174 29.4657 59.0174 29.3308C59.0174 29.2997 59.0174 29.2634 59.0174 29.2219C59.0226 29.1804 59.033 29.1389 59.0485 29.0974C59.2146 28.48 59.378 27.8679 59.5389 27.2609C59.6997 26.654 59.8554 26.0444 60.0058 25.4323C60.0162 25.396 60.024 25.3649 60.0292 25.3389C60.0344 25.313 60.037 25.2845 60.037 25.2533C60.037 25.1911 60.0214 25.1314 59.9903 25.0744C59.9643 25.0173 59.928 24.9602 59.8813 24.9032C59.1497 24.0939 58.3844 23.3339 57.5854 22.6232C56.7915 21.9125 55.9613 21.2329 55.0949 20.5845Z" fill="white"/>
<path d="M65.4538 20.779C65.4123 20.779 65.3319 20.7894 65.2126 20.8101C65.0984 20.8257 64.9635 20.8464 64.8079 20.8724C64.6522 20.8983 64.4888 20.9294 64.3175 20.9658C64.1463 20.9969 63.9855 21.0254 63.835 21.0514C63.6845 21.0773 63.5548 21.1006 63.4459 21.1214C63.3317 21.137 63.2565 21.1447 63.2202 21.1447C62.8725 21.1447 62.6987 20.9632 62.6987 20.6C62.6987 20.5015 62.7091 20.4055 62.7298 20.3121C62.7454 20.2136 62.7765 20.1254 62.8232 20.0476C62.8699 19.9646 62.9322 19.8945 63.01 19.8375C63.0878 19.7804 63.1864 19.7415 63.3058 19.7207C63.9128 19.6274 64.5173 19.5288 65.1192 19.425C65.721 19.3213 66.3281 19.2123 66.9404 19.0982C67.0753 19.0723 67.1972 19.0489 67.3062 19.0282C67.4151 19.0022 67.537 18.9685 67.672 18.927C67.8172 18.8855 67.9755 18.8466 68.1467 18.8103C68.3179 18.7688 68.4892 18.7325 68.6604 18.7014C68.8368 18.6702 69.0054 18.6443 69.1663 18.6236C69.3323 18.6028 69.4828 18.5924 69.6177 18.5924C69.7837 18.5924 69.9082 18.6469 69.9912 18.7558C70.0795 18.8596 70.1236 19.0074 70.1236 19.1994C70.1236 19.2979 70.1158 19.3939 70.1002 19.4873C70.0846 19.5755 70.0561 19.6559 70.0146 19.7285C69.9731 19.8011 69.916 19.8608 69.8434 19.9075C69.7707 19.9542 69.6773 19.9827 69.5632 19.9931C69.2674 20.0346 68.9509 20.0865 68.6137 20.1487C68.2764 20.2058 67.9833 20.2706 67.7342 20.3432C67.6304 20.3744 67.5526 20.4262 67.5007 20.4989C67.4488 20.5663 67.4151 20.6519 67.3996 20.7557C67.384 20.8542 67.3736 20.9554 67.3684 21.0591C67.3684 21.1577 67.3684 21.2537 67.3684 21.3471C67.3684 21.5649 67.3762 21.7828 67.3918 22.0007C67.4125 22.2186 67.4307 22.4365 67.4463 22.6543C67.493 23.4013 67.563 24.1406 67.6564 24.872C67.755 25.6035 67.8613 26.3427 67.9755 27.0897C67.9859 27.1157 67.9911 27.1416 67.9911 27.1676C67.9911 27.1935 67.9911 27.2194 67.9911 27.2454C67.9911 27.5307 67.8302 27.733 67.5085 27.8523L67.1583 27.9613C67.0649 27.9924 66.9741 28.008 66.8859 28.008C66.751 28.008 66.642 27.9639 66.559 27.8757C66.476 27.7927 66.4215 27.6682 66.3956 27.5022C66.2503 26.6099 66.1232 25.7228 66.0142 24.8409C65.9052 23.9538 65.8352 23.0616 65.8041 22.1641C65.7937 22.0188 65.7859 21.8606 65.7807 21.6894C65.7755 21.5182 65.7729 21.3419 65.7729 21.1603C65.7729 20.9061 65.6666 20.779 65.4538 20.779Z" fill="white"/>
<path d="M70.824 25.3311C70.8084 25.3311 70.7825 25.3337 70.7462 25.3389C70.715 25.3441 70.6787 25.3493 70.6372 25.3545C70.6009 25.3597 70.5646 25.3649 70.5283 25.3701C70.4919 25.3752 70.4634 25.3778 70.4426 25.3778C70.2974 25.3778 70.1702 25.3182 70.0613 25.1989C69.9523 25.0744 69.8979 24.9109 69.8979 24.7086C69.8979 24.5738 69.942 24.4441 70.0302 24.3196C70.1184 24.1951 70.2559 24.0913 70.4426 24.0083C70.4997 23.9824 70.5438 23.9538 70.575 23.9227C70.6113 23.8864 70.6294 23.8371 70.6294 23.7749C70.6294 23.6089 70.6243 23.4325 70.6139 23.2457C70.6087 23.0538 70.5983 22.8307 70.5827 22.5765C70.5776 22.5246 70.5594 22.4754 70.5283 22.4287C70.5023 22.382 70.4712 22.3301 70.4349 22.273C70.4037 22.2108 70.3752 22.1434 70.3493 22.0707C70.3233 21.9981 70.3103 21.9073 70.3103 21.7984C70.3103 21.6998 70.3233 21.5883 70.3493 21.4638C70.3804 21.3341 70.4401 21.2148 70.5283 21.1058C70.6217 20.9917 70.7488 20.8983 70.9096 20.8257C71.0757 20.7479 71.291 20.709 71.5556 20.709C71.6646 20.709 71.7554 20.7194 71.828 20.7401C71.9006 20.7609 71.9629 20.7868 72.0148 20.8179C72.0719 20.8439 72.1212 20.8672 72.1627 20.8879C72.2094 20.9087 72.2561 20.9191 72.3028 20.9191C72.3858 20.9191 72.5518 20.9035 72.8009 20.8724C73.0499 20.8413 73.3483 20.7972 73.6959 20.7401C74.0487 20.683 74.4353 20.6182 74.8555 20.5456C75.281 20.4729 75.7116 20.3951 76.1475 20.3121C76.5833 20.2239 77.0088 20.1357 77.4239 20.0476C77.839 19.9594 78.2151 19.8738 78.5524 19.7908C78.6562 19.7648 78.747 19.7519 78.8248 19.7519C78.9337 19.7519 79.0194 19.7778 79.0816 19.8297C79.1491 19.8764 79.1984 19.936 79.2295 20.0086C79.2606 20.0813 79.2788 20.1643 79.284 20.2577C79.2944 20.3458 79.2995 20.4288 79.2995 20.5067C79.2995 20.6415 79.2528 20.7686 79.1595 20.8879C79.0712 21.0021 78.9234 21.0929 78.7158 21.1603C78.2022 21.3107 77.6833 21.443 77.1593 21.5572C76.6404 21.6661 76.1164 21.7672 75.5871 21.8606C75.0579 21.9488 74.5261 22.0292 73.9916 22.1019C73.4572 22.1745 72.9254 22.2471 72.3961 22.3197C72.3235 22.3301 72.269 22.3586 72.2327 22.4053C72.1964 22.4468 72.1782 22.5039 72.1782 22.5765V22.8956C72.1782 22.9837 72.1808 23.0745 72.186 23.1679C72.1912 23.2613 72.2016 23.3469 72.2171 23.4247C72.2379 23.5025 72.2638 23.5674 72.295 23.6192C72.3261 23.6659 72.3676 23.6893 72.4195 23.6893C72.544 23.6893 72.736 23.6633 72.9954 23.6114C73.26 23.5596 73.5558 23.4973 73.8827 23.4247C74.2147 23.3469 74.5598 23.2639 74.9178 23.1757C75.281 23.0823 75.6234 22.9993 75.9451 22.9267C76.2668 22.8489 76.5496 22.784 76.7935 22.7321C77.0373 22.6803 77.2085 22.6543 77.3071 22.6543C77.4524 22.6543 77.5614 22.7088 77.634 22.8177C77.7118 22.9215 77.7637 23.0538 77.7897 23.2146C77.7897 23.2405 77.7923 23.2639 77.7975 23.2846C77.8026 23.3054 77.8052 23.3287 77.8052 23.3547C77.8052 23.5051 77.7585 23.6452 77.6651 23.7749C77.5769 23.8994 77.4161 23.9927 77.1826 24.055C77.1203 24.0757 76.9958 24.1095 76.809 24.1561C76.6222 24.1976 76.4017 24.2495 76.1475 24.3118C75.8932 24.3688 75.6182 24.4311 75.3225 24.4985C75.0268 24.566 74.7362 24.6334 74.4508 24.7008C74.1655 24.7631 73.8982 24.8254 73.6492 24.8876C73.4053 24.9447 73.2056 24.9914 73.0499 25.0277C72.9098 25.064 72.8242 25.0925 72.7931 25.1133C72.7671 25.134 72.7542 25.16 72.7542 25.1911C72.7645 25.3052 72.8216 25.4116 72.9254 25.5101C73.0343 25.6087 73.1692 25.6995 73.3301 25.7825C73.4961 25.8655 73.6803 25.9407 73.8827 26.0081C74.0902 26.0756 74.3029 26.1326 74.5209 26.1793C74.744 26.2208 74.9619 26.2545 75.1746 26.2805C75.3874 26.3064 75.5845 26.3194 75.7661 26.3194C75.844 26.3194 75.9555 26.3194 76.1008 26.3194C76.2461 26.3194 76.4043 26.3168 76.5755 26.3116C76.752 26.3012 76.931 26.2883 77.1126 26.2727C77.2993 26.2571 77.4654 26.2364 77.6107 26.2104C77.7611 26.1793 77.8831 26.143 77.9765 26.1015C78.075 26.0548 78.1243 26.0003 78.1243 25.9381C78.1243 25.881 78.1036 25.8214 78.0621 25.7591C78.0257 25.6969 78.0076 25.6294 78.0076 25.5568C78.0076 25.4531 78.0361 25.3519 78.0932 25.2533C78.1503 25.1496 78.2229 25.0588 78.3111 24.981C78.4045 24.898 78.5083 24.8331 78.6224 24.7864C78.7418 24.7346 78.8611 24.7086 78.9804 24.7086C79.1309 24.7086 79.2684 24.7398 79.3929 24.802C79.5175 24.8591 79.6238 24.9369 79.712 25.0354C79.8054 25.1288 79.8755 25.2378 79.9222 25.3623C79.9741 25.4868 80 25.6139 80 25.7436C80 26.0859 79.8729 26.3816 79.6186 26.6306C79.3696 26.8796 79.0427 27.0846 78.638 27.2454C78.2333 27.4114 77.7767 27.5333 77.2682 27.6111C76.7597 27.6941 76.2487 27.7356 75.735 27.7356C75.1331 27.7356 74.5831 27.6941 74.085 27.6111C73.5869 27.5333 73.1407 27.4062 72.7464 27.2298C72.352 27.0534 72.0122 26.8252 71.7268 26.545C71.4415 26.2597 71.208 25.9148 71.0264 25.5101C70.9641 25.3908 70.8967 25.3311 70.824 25.3311Z" fill="white"/>
</svg>
